<?xml version="1.0" standalone="no"?>
<!DOCTYPE svg PUBLIC "-//W3C//DTD SVG 20010904//EN"
 "http://www.w3.org/TR/2001/REC-SVG-20010904/DTD/svg10.dtd">
<svg version="1.0" xmlns="http://www.w3.org/2000/svg"
 width="342.000000pt" height="117.000000pt" viewBox="0 0 342.000000 117.000000"
 preserveAspectRatio="xMidYMid meet">

<g transform="translate(0.000000,117.000000) scale(0.100000,-0.100000)"
fill="#000000" stroke="none">
<path d="M351 1144 c-92 -33 -174 -103 -213 -183 -32 -65 -33 -198 -1 -256 36
-69 120 -138 229 -190 187 -88 228 -127 208 -197 -18 -62 -103 -93 -204 -76
-50 9 -173 69 -207 100 -13 12 -25 20 -26 17 -2 -2 -30 -48 -62 -102 -45 -76
-56 -103 -49 -115 13 -20 112 -76 181 -102 29 -11 93 -25 143 -32 211 -28 407
51 470 190 l22 48 66 -66 c71 -69 169 -127 261 -154 142 -42 335 -25 468 40
l73 35 -16 32 -17 32 24 -21 c75 -68 227 -129 346 -140 124 -12 316 30 390 84
25 18 26 18 107 -23 108 -56 217 -74 344 -57 207 27 389 181 453 381 29 92 36
244 15 335 -47 199 -204 365 -400 421 -44 13 -85 16 -170 13 -126 -5 -197 -26
-283 -83 -29 -19 -50 -29 -47 -21 8 20 -100 71 -192 92 -56 12 -106 15 -192
12 -131 -5 -208 -29 -312 -97 -89 -58 -83 -56 -70 -31 17 32 8 45 -52 73 -79
37 -184 57 -297 57 -177 0 -326 -65 -450 -195 -80 -85 -127 -176 -150 -291
l-17 -83 -29 20 c-17 11 -86 47 -155 80 -144 69 -180 98 -180 145 0 103 139
128 297 54 l63 -29 50 99 50 99 -28 19 c-15 11 -61 32 -102 47 -96 35 -268 45
-339 19z m1164 -255 l53 -20 -28 -57 c-40 -81 -53 -154 -48 -263 3 -73 10
-108 32 -159 44 -105 47 -96 -34 -121 -145 -44 -307 -6 -396 94 l-38 42 187 3
187 2 0 105 0 105 -211 0 -211 0 6 32 c18 92 83 176 170 218 108 53 222 60
331 19z m743 6 c44 -13 52 -19 47 -33 -77 -182 -83 -356 -19 -515 l23 -58 -25
-10 c-94 -35 -212 -37 -307 -4 -65 23 -149 102 -184 173 -24 48 -28 70 -28
137 0 68 4 88 28 135 85 166 266 234 465 175z m644 13 c22 -6 59 -29 84 -51
169 -149 141 -487 -47 -581 -42 -21 -67 -26 -124 -26 -81 0 -124 12 -175 48
-84 59 -124 152 -123 287 1 157 73 279 192 321 46 17 142 18 193 2z"/>
</g>
</svg>
